PathFileType	4	(X/Y/Z)	./resultDataOpenSim/trcMotMarkerGrf/sub10/qtm-12-03.trc
DataRate	CameraRate	NumFrames	NumMarkers	Units	OrigDataRate	OrigDataStartFrame	OrigNumFrames
250.000000	250.000000	10	24	m	250.000000	350	466
Frame#	Time	L.Toe.Tip			R.Toe.Tip			L.Ankle.Lat			R.Ankle.Lat			L.Ankle.Med			R.Ankle.Med			L.Heel			R.Heel			L.Knee.Lat			R.Knee.Lat			L.Knee.Med			R.Knee.Med			L.Thigh.Upper			R.Thigh.Upper			L.ASIS			R.ASIS			V.Sacral			L.Acromium			R.Acromium			C7			L.Elbow			R.Elbow			L.Wrist.Lat			R.Wrist.Lat
		X1	Y1	Z1	X2	Y2	Z2	X3	Y3	Z3	X4	Y4	Z4	X5	Y5	Z5	X6	Y6	Z6	X7	Y7	Z7	X8	Y8	Z8	X9	Y9	Z9	X10	Y10	Z10	X11	Y11	Z11	X12	Y12	Z12	X13	Y13	Z13	X14	Y14	Z14	X15	Y15	Z15	X16	Y16	Z16	X17	Y17	Z17	X18	Y18	Z18	X19	Y19	Z19	X20	Y20	Z20	X21	Y21	Z21	X22	Y22	Z22	X23	Y23	Z23	X24	Y24	Z24

350	1.396	0.73957426	0.071588027	-0.16166597	0.88102359	0.038379646	0.047016648	0.65019207	0.17325551	-0.18324574	0.73791036	0.060982658	0.090113567	0.67524909	0.17925705	-0.10047166	0.75950831	0.08899459	0.0081121638	0.58004379	0.1796939	-0.1397515	0.68616108	0.039011951	0.044435013	0.88716495	0.47060912	-0.1760353	0.79787787	0.46308561	0.12477428	0.89601129	0.44063861	-0.058248265	0.81007895	0.46302585	-0.0028162617	0.80446711	0.84887072	-0.21038252	0.80238591	0.87837696	0.16922332	0.85673502	0.96498176	-0.14754073	0.87288296	0.97251184	0.088439971	0.66412093	0.98110244	-0.01780989	0.78171266	1.4458725	-0.16336718	0.75601333	1.4312266	0.15825269	0.69093878	1.4627658	-0.011456593	0.6878492	1.1168822	-0.24277664	0.68691112	1.0805196	0.19414378	0.8316128	0.92658528	-0.30417744	0.85319213	0.91340964	0.27040408
351	1.4	0.75751346	0.070473546	-0.16161725	0.8811145	0.038347084	0.046970259	0.66532139	0.16961725	-0.18266457	0.7378532	0.061302045	0.089538338	0.68952565	0.17622081	-0.09954347	0.75994508	0.089318431	0.0075838467	0.59524384	0.17417845	-0.13912369	0.68647624	0.039345152	0.043532448	0.8963376	0.47211498	-0.17563598	0.79844874	0.46331293	0.12490245	0.90563885	0.44226138	-0.057893222	0.81097422	0.463125	-0.0028045164	0.81116199	0.84992212	-0.21051654	0.80623043	0.87885159	0.16922505	0.86284437	0.96575141	-0.14683935	0.87741531	0.97287033	0.088997277	0.66930315	0.98155875	-0.018617173	0.78728665	1.4460545	-0.16352921	0.76158378	1.4319279	0.15811691	0.6964018	1.463264	-0.011630402	0.69179014	1.117531	-0.2419315	0.69467834	1.0805558	0.19523837	0.83294013	0.92535347	-0.30306559	0.86464918	0.91561693	0.26859611
352	1.404	0.7754356	0.069348223	-0.16152064	0.8811885	0.038324795	0.04691746	0.68058161	0.16591215	-0.18205219	0.73783567	0.061607387	0.088936751	0.70411072	0.17311082	-0.098667564	0.76024101	0.089623487	0.0070804956	0.61053735	0.16859414	-0.138367	0.68686608	0.039724029	0.042629485	0.90550987	0.47353482	-0.17533008	0.79903302	0.46351229	0.12501631	0.9154724	0.44376811	-0.057490517	0.8117883	0.46321766	-0.0028751959	0.81797827	0.85088903	-0.21065524	0.8099119	0.87925003	0.16926035	0.8687507	0.96642369	-0.14611655	0.88191028	0.97316755	0.089619769	0.67442864	0.98200691	-0.019596875	0.79286061	1.446161	-0.16368826	0.76715459	1.4325571	0.15799059	0.70185776	1.4636908	-0.011795117	0.6957384	1.1181025	-0.24108934	0.70232143	1.0804641	0.19610206	0.83426649	0.92411381	-0.30198428	0.87604648	0.9178108	0.26677251
353	1.408	0.79338682	0.06823283	-0.16137806	0.88125678	0.038314232	0.046853496	0.69597417	0.16214612	-0.1814132	0.7378083	0.061915092	0.088332155	0.71912152	0.16992718	-0.097905707	0.7603796	0.089899003	0.0066077457	0.62593405	0.16294701	-0.13744551	0.68732105	0.040204346	0.041736777	0.91460766	0.47486841	-0.17505714	0.79963378	0.46369208	0.12511726	0.92543363	0.44516744	-0.057005578	0.81255872	0.46328674	-0.0029675472	0.8248496	0.85177122	-0.21078005	0.81353254	0.87955478	0.16931948	0.87447954	0.9669888	-0.14538986	0.88636777	0.9734012	0.090300933	0.67951145	0.98241304	-0.020765098	0.79843046	1.4461905	-0.16383752	0.7727207	1.4331098	0.15787289	0.70729887	1.4640273	-0.011907866	0.69969921	1.118603	-0.24024759	0.70987039	1.0802942	0.19686633	0.83560717	0.92288281	-0.30094183	0.88738452	0.91998838	0.26494259
354	1.412	0.81139747	0.067154661	-0.16119662	0.88132513	0.038303058	0.046775861	0.71150368	0.15832312	-0.18075469	0.73775709	0.062231008	0.087738549	0.73439382	0.16670883	-0.097189355	0.76043186	0.090170872	0.006161178	0.64147792	0.15726444	-0.13636231	0.68772563	0.040746571	0.04087682	0.92357261	0.4761289	-0.17477639	0.80024912	0.46387199	0.12521162	0.93530856	0.4464987	-0.056457433	0.81327256	0.46333554	-0.003062889	0.83165497	0.85256807	-0.21086329	0.81727398	0.87974717	0.16939742	0.88017321	0.96745318	-0.1446816	0.89078556	0.97357466	0.091031382	0.68459264	0.98273657	-0.022075138	0.80399487	1.4461431	-0.16398725	0.77826464	1.4335777	0.15775327	0.71272319	1.4642636	-0.011940198	0.70367817	1.1190405	-0.23940554	0.71739033	1.0800842	0.19761684	0.83697193	0.92166885	-0.29993845	0.89867451	0.92213857	0.26311549
355	1.416	0.82950022	0.066147934	-0.16098565	0.88139585	0.038276533	0.046683343	0.72716632	0.15444598	-0.18008291	0.73769242	0.062547695	0.08715645	0.74979133	0.16347541	-0.096445146	0.7605063	0.090478735	0.005729293	0.65717186	0.15156433	-0.13516774	0.68796516	0.041256174	0.040062754	0.93239339	0.47731397	-0.17449728	0.8008856	0.46406237	0.12530946	0.94506488	0.44779623	-0.055933411	0.81395073	0.46337805	-0.0031486026	0.83834809	0.85327215	-0.21089327	0.82121843	0.87980782	0.1695045	0.88591822	0.96783158	-0.14400268	0.8951648	0.97369419	0.091803829	0.68970488	0.98292094	-0.023427449	0.80955456	1.4460259	-0.16415142	0.78377888	1.4339573	0.15762633	0.71813577	1.4644111	-0.011933279	0.70767046	1.1194139	-0.23856387	0.72497878	1.0798573	0.19840715	0.83836545	0.92046665	-0.29897203	0.90993188	0.92424818	0.26128955
356	1.42	0.8477483	0.065243449	-0.16075888	0.88146087	0.03822687	0.046580433	0.74295513	0.15051967	-0.17939976	0.7376298	0.062855467	0.086590959	0.76534097	0.16022549	-0.095676304	0.76065744	0.090822295	0.0052993726	0.67300275	0.14584155	-0.13396559	0.68802925	0.041689812	0.039315397	0.94106403	0.47839857	-0.17425173	0.80155969	0.4642476	0.12541567	0.95496678	0.44905726	-0.055561864	0.81472838	0.46341262	-0.0031667875	0.8449662	0.85387726	-0.21088449	0.82521129	0.87977137	0.16965242	0.89170516	0.96813877	-0.14335609	0.89951195	0.97376436	0.09261334	0.69485876	0.982921	-0.024739228	0.81511172	1.4458435	-0.16433173	0.78927254	1.4342556	0.15749639	0.72354216	1.464494	-0.011979849	0.7116655	1.1197201	-0.23772782	0.73275699	1.0796241	0.19928343	0.83978649	0.91926492	-0.29804377	0.92115846	0.9263174	0.25945009
357	1.424	0.86618611	0.064462622	-0.16052672	0.88150212	0.03815736	0.046480565	0.75886941	0.14655932	-0.17869945	0.73758001	0.063152052	0.086049943	0.78109767	0.15696763	-0.094913228	0.76087616	0.091157777	0.0048615115	0.6889897	0.14009713	-0.13283644	0.68801703	0.042084283	0.038692618	0.94957876	0.47936125	-0.17405009	0.80228035	0.46440068	0.12552077	0.96527806	0.45025303	-0.055422227	0.81572861	0.46343187	-0.0030734408	0.85163861	0.85439175	-0.21089142	0.82888859	0.87971619	0.16985159	0.89749534	0.96837994	-0.14274033	0.90383464	0.97378637	0.093453831	0.70004777	0.98274059	-0.025980495	0.82066726	1.4455921	-0.16452213	0.79476054	1.4344836	0.15736799	0.72894544	1.464528	-0.012126176	0.71566062	1.1199578	-0.23689527	0.74081325	1.0793857	0.20027468	0.84122781	0.9180542	-0.29715491	0.93233246	0.92836189	0.25758559
358	1.428	0.88477891	0.063813441	-0.16027554	0.88151427	0.038088122	0.046396236	0.7749123	0.14259845	-0.17797266	0.73754412	0.063437662	0.085531405	0.79707685	0.15372492	-0.094159615	0.76113534	0.091446609	0.0044164127	0.70516398	0.13436125	-0.13177952	0.68805394	0.042483856	0.038265845	0.95796223	0.48020487	-0.17387762	0.80304147	0.46451201	0.12560702	0.97580128	0.45135995	-0.055456594	0.81688203	0.46342978	-0.0029463134	0.85849363	0.85483424	-0.21097226	0.83201029	0.87968904	0.17010749	0.90327153	0.96854907	-0.14215018	0.90813591	0.97375926	0.09431599	0.70525387	0.98244802	-0.027160297	0.82621821	1.4452711	-0.16472223	0.80024854	1.4346415	0.15723979	0.73434644	1.4645139	-0.012339875	0.71965896	1.1201253	-0.23605405	0.74912699	1.0791286	0.20136143	0.8426838	0.91682777	-0.2963003	0.94343637	0.93039446	0.25570134
359	1.432	0.90341379	0.063287287	-0.15997005	0.88151462	0.038049234	0.046329319	0.7910808	0.13867986	-0.17721067	0.73751504	0.063705817	0.085035561	0.81329119	0.15051313	-0.09340554	0.76141602	0.091685412	0.0039857323	0.72155462	0.12865538	-0.13075137	0.68819221	0.042870187	0.038039003	0.96625017	0.48094576	-0.17372141	0.80383868	0.46459484	0.12566902	0.98592774	0.45237286	-0.055516666	0.81802375	0.463404	-0.0029202022	0.86545201	0.85520971	-0.21110712	0.83482741	0.87968429	0.17036962	0.90903122	0.96863927	-0.14158615	0.91241557	0.9736817	0.09519067	0.71045004	0.98213547	-0.028288985	0.83176061	1.4448871	-0.16493503	0.80572951	1.4347162	0.15710848	0.7397432	1.4644452	-0.012575448	0.72366287	1.1202219	-0.2352019	0.75757761	1.0788188	0.20248662	0.84415448	0.91558102	-0.2954688	0.95449137	0.9324122	0.25380204
